<svg width="20" height="20" viewBox="0 0 20 20" fill="none" xmlns="http://www.w3.org/2000/svg">
<g id="iconTelegram" clip-path="url(#clip0_1276_236)">
<path id="Vector" d="M9.99997 19.9988C8.02212 19.9986 6.08874 19.4119 4.44434 18.3128C2.79994 17.2138 1.51837 15.6518 0.761705 13.8245C0.00504298 11.9971 -0.192731 9.98632 0.193398 8.04652C0.579528 6.10672 1.53221 4.32499 2.93098 2.92665C4.32975 1.5283 6.11177 0.576154 8.05169 0.190611C9.9916 -0.194931 12.0023 0.00344855 13.8294 0.760664C15.6566 1.51788 17.2182 2.79992 18.3167 4.44465C19.4152 6.08939 20.0014 8.02295 20.001 10.0008C20.002 11.3143 19.7441 12.6151 19.2418 13.8288C18.7395 15.0425 18.0029 16.1452 17.0739 17.0739C16.145 18.0025 15.0421 18.7389 13.8282 19.2408C12.6144 19.7427 11.3135 20.0002 9.99997 19.9988ZM14.4579 6.0482C14.4579 5.58023 14.1936 5.37044 13.7811 5.4713C13.6674 5.49743 13.5555 5.53113 13.4463 5.57216C10.9739 6.52761 8.50292 7.48374 6.03326 8.44054C5.31516 8.71991 4.60007 9.00937 3.89306 9.31699C3.768 9.37145 3.60057 9.55904 3.61772 9.65486C3.64193 9.78295 3.81943 9.88683 3.9445 9.99072C3.9957 10.0191 4.05183 10.0376 4.1099 10.0452C4.65453 10.2136 5.20119 10.377 5.74178 10.5565C5.78258 10.5748 5.8192 10.6012 5.84938 10.6341C5.87957 10.6671 5.90268 10.7059 5.91727 10.7482C6.25212 11.794 6.57284 12.845 6.90667 13.8909C6.95067 14.0463 7.04033 14.185 7.16405 14.289C7.28777 14.3929 7.43984 14.4573 7.60057 14.4738C7.93744 14.5212 8.2622 14.4647 8.51938 14.2267C8.90768 13.8677 9.29296 13.5046 9.65705 13.1223C9.81742 12.9549 9.91929 12.968 10.0897 13.0991C10.6404 13.5261 11.1982 13.9433 11.763 14.3508C12.2753 14.7229 12.6505 14.5767 12.7836 13.9524C13.2543 11.7463 13.7223 9.53955 14.1876 7.33212C14.2804 6.89238 14.3731 6.44962 14.4569 6.0482H14.4579Z" fill="black"/>
<path id="Vector_2" d="M12.4932 7.16685C12.4142 7.26696 12.3297 7.36258 12.24 7.45328C10.9323 8.64877 9.62111 9.84124 8.3066 11.0307C8.06152 11.2516 7.91427 11.4694 7.91327 11.8375C7.91327 12.5143 7.82552 13.1911 7.77408 13.8678C7.58851 13.9081 7.50882 13.8113 7.46444 13.6711C7.16187 12.7281 6.86636 11.7861 6.5779 10.8401C6.57474 10.8 6.58156 10.7598 6.59775 10.723C6.61394 10.6862 6.63901 10.654 6.6707 10.6293C8.47806 9.48623 10.2891 8.34822 12.1039 7.21526C12.2122 7.16412 12.3264 7.12619 12.4438 7.10229L12.4932 7.16685Z" fill="black"/>
<path id="Vector_3" d="M8.52573 11.9839L9.30737 12.5678L8.42285 13.4645C8.45714 12.9683 8.4874 12.5033 8.52573 11.9839Z" fill="black"/>
</g>
<defs>
<clipPath id="clip0_1276_236">
<rect width="20" height="20" fill="white"/>
</clipPath>
</defs>
</svg>
