<svg width="20" height="20" viewBox="0 0 20 20" fill="none" xmlns="http://www.w3.org/2000/svg">
<g id="iconPhone" clip-path="url(#clip0_1276_240)">
<path id="Vector" d="M10 -0.0166016C11.9778 -0.0166016 13.9112 0.569867 15.5557 1.66868C17.2002 2.7675 18.4819 4.32928 19.2388 6.15655C19.9957 7.98381 20.1937 9.99448 19.8078 11.9343C19.422 13.8741 18.4696 15.6559 17.0711 17.0545C15.6726 18.453 13.8907 19.4054 11.9509 19.7912C10.0111 20.1771 8.00041 19.9791 6.17315 19.2222C4.34589 18.4653 2.7841 17.1836 1.68528 15.5391C0.586468 13.8946 0 11.9612 0 9.9834C0 7.33123 1.05356 4.78769 2.92892 2.91232C4.80429 1.03696 7.34784 -0.0166016 10 -0.0166016ZM12.5583 15.8167C12.825 15.8167 13.1 15.8167 13.3917 15.7501C13.6972 15.684 13.978 15.5333 14.202 15.3152C14.426 15.0971 14.5841 14.8204 14.6584 14.5167C14.6844 14.4383 14.6844 14.3535 14.6584 14.2751C14.175 13.5751 13.6917 12.8667 13.1917 12.1834C13.1509 12.1246 13.0988 12.0744 13.0385 12.0358C12.9782 11.9972 12.9108 11.9709 12.8403 11.9585C12.7698 11.9461 12.6975 11.9478 12.6277 11.9635C12.5578 11.9792 12.4917 12.0087 12.4333 12.05C12.0945 12.2435 11.7663 12.455 11.45 12.6834C11.3776 12.753 11.2838 12.7959 11.1838 12.805C11.0838 12.814 10.9837 12.7888 10.9 12.7334C10.6626 12.5922 10.4442 12.4214 10.25 12.2251C9.49667 11.4341 8.88751 10.5176 8.45001 9.51673C8.33205 9.24985 8.24537 8.97021 8.19168 8.6834C8.15902 8.55164 8.17263 8.41262 8.23029 8.28972C8.28794 8.16682 8.38614 8.06751 8.50835 8.0084C8.79169 7.85007 9.06669 7.66673 9.34169 7.4834C9.42826 7.4437 9.50426 7.38421 9.56365 7.30975C9.62304 7.2353 9.66413 7.14796 9.68358 7.05473C9.70304 6.9615 9.70035 6.865 9.6757 6.773C9.65105 6.68101 9.60514 6.59606 9.54168 6.52504C9.10834 5.90004 8.70834 5.27505 8.23334 4.65839C8.13771 4.53157 7.99789 4.44533 7.84164 4.41674C7.56919 4.38521 7.29328 4.42731 7.04264 4.53871C6.79201 4.6501 6.57585 4.82671 6.41668 5.05008C5.95704 5.7499 5.64251 6.53481 5.49169 7.35838C5.42019 7.65125 5.4376 7.95878 5.54169 8.24171C5.70835 8.67504 5.84166 9.12505 6.03333 9.55005C6.50191 10.5378 7.05978 11.4806 7.69999 12.3667C8.47632 13.541 9.45217 14.5705 10.5833 15.4084C10.6832 15.4909 10.7997 15.5505 10.925 15.5834L12.5583 15.8167Z" fill="black"/>
</g>
<defs>
<clipPath id="clip0_1276_240">
<rect width="20" height="20" fill="white"/>
</clipPath>
</defs>
</svg>
