<svg width="360" height="348" viewBox="0 0 360 348" fill="none" xmlns="http://www.w3.org/2000/svg">
<path fill-rule="evenodd" clip-rule="evenodd" d="M0.000117115 120.943V122.618H0V181.942V215.349V227.057C0 233.24 2.4927 239.163 6.91539 243.488L107.08 341.44C111.38 345.645 117.158 348 123.175 348H154.385C155.499 348 156.594 347.921 157.665 347.768H205.973H233.173H237.146C243.189 347.768 248.99 345.393 253.295 341.155L352.755 243.247C357.144 238.926 359.616 233.027 359.616 226.87V215.349H359.73V122.618H359.616V121.13C359.616 114.973 357.145 109.074 352.755 104.753L253.295 6.84515C248.99 2.6073 243.19 0.231765 237.146 0.231765H233.173H205.974H157.665C156.594 0.0790241 155.499 0 154.385 0H123.175C117.158 0 111.381 2.35495 107.08 6.56017L6.9155 104.512C2.49282 108.837 0.000117115 114.76 0.000117115 120.943Z" fill="#A8CFC0"/>
<path d="M61.2588 148.155H37.4003V158.838H53.8747V164.897H37.4003V183.775H31.2812V142.068H61.2588V148.155Z" fill="black"/>
<path d="M49.337 134.19C46.2335 132.404 43.7567 129.862 41.9066 126.532C40.0565 123.202 39.1016 119.328 39.1016 114.939C39.1016 110.368 40.0266 106.403 41.9066 103.013C43.7567 99.6225 46.2335 97.0496 49.3071 95.2334C52.3807 93.4475 55.7229 92.5394 59.3336 92.5394C62.9145 92.5394 66.2269 93.4475 69.3005 95.2334C72.3741 97.0193 74.8509 99.6225 76.701 103.013C78.5511 106.403 79.5061 110.368 79.5061 114.939C79.5061 119.328 78.581 123.202 76.701 126.532C74.8509 129.862 72.3741 132.404 69.3005 134.19C66.2269 135.976 62.9145 136.854 59.3336 136.854C55.7527 136.824 52.4404 135.946 49.337 134.19ZM69.2706 125.927C71.6579 123.172 72.8814 119.51 72.8814 114.909C72.8814 110.065 71.6878 106.282 69.2706 103.497C66.8834 100.712 63.571 99.3198 59.3336 99.3198C55.0664 99.3198 51.7541 100.712 49.3668 103.467C46.9795 106.221 45.7859 110.035 45.7859 114.909C45.7859 119.54 46.9795 123.233 49.3668 125.957C51.7541 128.681 55.0664 130.043 59.3336 130.043C63.571 130.043 66.8834 128.681 69.2706 125.927Z" fill="black"/>
<path d="M83.2247 101.606C80.1212 99.8202 77.6444 97.2775 75.7943 93.9479C73.9442 90.6182 72.9893 86.7437 72.9893 82.3547C72.9893 77.784 73.9143 73.8187 75.7943 70.4285C77.6444 67.0383 80.1212 64.4654 83.1948 62.6492C86.2684 60.8633 89.6106 59.9552 93.2213 59.9552C96.8022 59.9552 100.115 60.8633 103.188 62.6492C106.262 64.4351 108.739 67.0383 110.589 70.4285C112.439 73.8187 113.394 77.784 113.394 82.3547C113.394 86.7437 112.469 90.6182 110.589 93.9479C108.739 97.2775 106.262 99.8202 103.188 101.606C100.115 103.392 96.8022 104.27 93.2213 104.27C89.6404 104.27 86.3281 103.362 83.2247 101.606ZM103.158 93.3728C105.546 90.6182 106.769 86.9556 106.769 82.3547C106.769 77.5115 105.575 73.7278 103.158 70.943C100.771 68.1582 97.4587 66.7658 93.2213 66.7658C88.9541 66.7658 85.6418 68.1582 83.2545 70.9128C80.8672 73.6673 79.6736 77.4813 79.6736 82.3547C79.6736 86.9859 80.8672 90.6788 83.2545 93.403C85.6418 96.1273 88.9541 97.4894 93.2213 97.4894C97.4587 97.4894 100.771 96.097 103.158 93.3728Z" fill="black"/>
<path d="M149.771 45.7352C153.304 49.3085 155.101 54.4927 155.101 61.3171C155.101 68.1122 153.304 73.2671 149.741 76.8111C146.177 80.3551 140.939 82.1124 133.994 82.1124H117.304V40.4046H133.994C140.969 40.4046 146.238 42.1912 149.771 45.7352ZM144.715 72.4763C147.122 70.1331 148.34 66.4134 148.34 61.3171C148.34 56.1915 147.122 52.4424 144.715 50.07C142.309 47.6976 138.715 46.4967 133.994 46.4967H123.639V75.991H133.994C138.746 76.0203 142.309 74.8194 144.715 72.4763Z" fill="black"/>
<path d="M169.577 71.6775C166.374 69.9441 163.817 67.4763 161.907 64.2446C159.997 61.0128 159.012 57.2523 159.012 52.9923C159.012 48.556 159.967 44.7074 161.907 41.4169C163.817 38.1264 166.374 35.6292 169.546 33.8664C172.719 32.1624 176.169 31.281 179.896 31.281C183.593 31.281 187.012 32.1624 190.185 33.8958C193.358 35.6292 195.914 38.1558 197.824 41.4463C199.734 44.7367 200.72 48.5854 200.72 53.0217C200.72 57.2817 199.765 61.0422 197.824 64.2739C195.914 67.5057 193.358 69.9735 190.185 71.7069C187.012 73.4403 183.593 74.2923 179.896 74.2923C176.2 74.2629 172.75 73.4109 169.577 71.6775ZM190.154 63.6864C192.618 61.0128 193.881 57.458 193.881 52.9923C193.881 48.2916 192.649 44.6192 190.154 41.9163C187.69 39.2134 184.271 37.862 179.896 37.862C175.492 37.862 172.072 39.2134 169.608 41.8869C167.144 44.5605 165.912 48.2622 165.912 52.9923C165.912 57.4873 167.144 61.0716 169.608 63.7157C172.072 66.3599 175.492 67.6819 179.896 67.6819C184.24 67.6819 187.659 66.3599 190.154 63.6864Z" fill="black"/>
<path d="M239.82 41.7079V48.0163H225.973V84.7192H219.78V48.0163H205.933V41.7079H239.82Z" fill="black"/>
<path d="M275.011 63.6309H250.116V75.7127H267.306V81.9953H250.116V94.0771H275.011V100.36H243.73V57.3484H275.011V63.6309Z" fill="black"/>
<path d="M308.899 93.8428L292.583 112.66L308.899 136.854H301.1L288.31 117.674L281.227 125.829V136.854H275.012V93.8428H281.227V117.1L301.13 93.8428H308.899Z" fill="black"/>
<path d="M322.95 183.775L319.533 173.495H302.327L298.728 183.775H291.955L306.537 142.068H315.964L329.753 183.775H322.95ZM304.463 167.432H317.52L311.174 148.101L304.463 167.432Z" fill="black"/>
<path d="M133.465 268.747V272.288H126.716V287.969H122.749V272.288H116V268.747H133.465Z" fill="black"/>
<path d="M153.197 268.747L147.117 283.517C146.499 285.035 145.743 286.198 144.85 287.008C143.992 287.817 142.841 288.221 141.399 288.221C140.025 288.221 138.909 287.8 138.05 286.957C137.191 286.08 136.728 284.967 136.659 283.618L139.802 282.86C139.87 284.344 140.454 285.085 141.553 285.085C142.24 285.085 142.773 284.832 143.15 284.327L134.238 268.747H138.668L144.747 280.432L149.075 268.747H153.197Z" fill="black"/>
<path d="M171.743 268.747V272.288H164.994V287.969H161.027V272.288H154.278V268.747H171.743Z" fill="black"/>
<path d="M199.924 268.747V287.969H195.957V272.288H187.199V287.969H183.232V268.747H199.924Z" fill="black"/>
<path d="M213.679 268.747C215.946 268.747 217.715 269.287 218.986 270.366C220.291 271.445 220.944 272.929 220.944 274.817C220.944 276.706 220.291 278.189 218.986 279.268C217.715 280.347 215.946 280.887 213.679 280.887H209.352V287.969H205.385V268.747H213.679ZM213.216 277.751C215.689 277.751 216.925 276.807 216.925 274.918C216.925 272.996 215.689 272.035 213.216 272.035H209.352V277.751H213.216Z" fill="black"/>
<path d="M232.793 288.221C229.908 288.221 227.59 287.328 225.838 285.541C224.086 283.72 223.21 281.325 223.21 278.358C223.21 276.436 223.605 274.733 224.395 273.249C225.22 271.732 226.353 270.568 227.796 269.759C229.238 268.916 230.904 268.494 232.793 268.494C235.712 268.494 238.048 269.405 239.799 271.226C241.551 273.013 242.427 275.39 242.427 278.358C242.427 280.28 242.015 282 241.191 283.517C240.401 285.001 239.267 286.164 237.79 287.008C236.348 287.817 234.682 288.221 232.793 288.221ZM232.793 284.832C234.476 284.832 235.815 284.242 236.811 283.062C237.842 281.882 238.357 280.314 238.357 278.358C238.357 276.402 237.842 274.834 236.811 273.654C235.815 272.474 234.476 271.883 232.793 271.883C231.11 271.883 229.753 272.474 228.723 273.654C227.727 274.834 227.229 276.402 227.229 278.358C227.229 280.314 227.727 281.882 228.723 283.062C229.753 284.242 231.11 284.832 232.793 284.832Z" fill="black"/>
<path d="M152.501 297.245H156.468V316.466H152.501V297.245ZM149.719 291.984H153.583V295.222H149.719V291.984ZM155.438 291.984H159.301V295.222H155.438V291.984Z" fill="black"/>
<path d="M184.649 316.466L179.085 307.564L176.457 310.194V316.466H172.49V310.194L169.863 307.564L164.299 316.466H159.611L167.081 304.832L159.714 297.245H164.659L172.49 305.642V297.245H176.457V305.692L184.34 297.245H189.234L181.867 304.832L189.337 316.466H184.649Z" fill="black"/>
<path d="M208.862 297.245L202.783 312.015C202.165 313.532 201.409 314.696 200.516 315.505C199.658 316.314 198.507 316.719 197.065 316.719C195.691 316.719 194.575 316.298 193.716 315.455C192.857 314.578 192.394 313.465 192.325 312.116L195.468 311.357C195.536 312.841 196.12 313.583 197.219 313.583C197.906 313.583 198.439 313.33 198.816 312.824L189.904 297.245H194.334L200.413 308.929L204.741 297.245H208.862Z" fill="black"/>
<path d="M276.069 216.341C268.656 206.262 263.648 199.005 253.23 186.306C241.21 171.792 220.775 143.168 186.918 129.057C183.112 127.445 174.898 127.243 172.494 119.18C169.889 109.907 163.278 94.1844 147.652 95.1922C136.032 95.9986 131.624 103.659 131.624 103.659C128.619 104.666 123.611 106.279 121.006 107.69C117 109.907 113.394 113.536 113.394 114.342C113.394 115.149 116.799 113.939 120.405 113.334C124.012 112.931 129.421 112.931 132.025 113.334C134.629 113.737 135.23 115.955 133.227 115.955C131.224 115.955 125.815 116.358 122.809 117.164C120.606 117.769 116.399 119.583 114.796 120.793C113.193 121.801 115.197 123.01 118.001 122.405C120.606 121.801 126.616 121.801 128.82 122.405C129.821 122.809 131.224 123.413 132.626 124.018C135.03 125.429 136.633 128.05 136.633 130.872C135.832 176.025 155.064 182.879 157.067 186.709C159.271 190.539 161.675 201.021 161.275 206.464C161.074 209.689 147.251 232.064 146.049 233.475C144.646 234.886 139.037 235.491 133.828 236.902C129.02 238.112 129.02 241.337 131.023 240.934C133.227 240.732 142.443 239.321 142.443 239.321C142.443 239.321 130.422 250.811 134.629 251.819C136.833 252.222 142.643 243.353 149.655 238.918C152.059 237.305 159.271 239.321 159.271 237.507C159.271 235.693 155.064 234.886 153.261 234.282C151.258 233.677 156.066 229.041 158.87 225.412C162.877 219.969 175.298 207.875 175.298 201.424C175.298 194.974 175.098 190.942 176.701 190.741C180.707 190.136 181.909 199.812 181.909 204.045C181.909 208.883 174.898 229.242 174.297 231.056C172.694 234.685 171.692 236.499 171.292 237.104C169.889 238.515 164.28 239.119 159.071 240.531C154.263 241.74 154.263 244.965 156.266 244.562C158.47 244.361 167.685 242.949 167.685 242.949C167.685 242.949 155.665 254.439 159.872 255.447C162.076 255.851 167.886 246.981 174.898 242.546C177.302 240.934 184.514 242.949 184.514 241.135C184.514 239.321 180.307 238.515 178.504 237.91C177.702 237.708 178.103 236.096 179.105 233.878C181.308 229.645 189.723 215.535 193.93 206.262C194.932 204.045 195.132 199.207 195.533 196.99C196.134 193.361 198.538 191.144 202.745 189.531C215.566 184.088 220.775 191.345 228.588 200.416C243.013 217.551 253.631 239.321 260.643 235.693C264.048 233.878 262.846 229.847 262.846 229.847C262.846 229.847 266.252 232.064 268.857 230.452C272.062 228.436 270.66 225.009 270.66 225.009C274.466 227.226 280.476 222.388 276.069 216.341Z" fill="black"/>
<path d="M142.11 111.347C141.557 107.933 146.532 105.372 150.771 105.585C155.009 105.799 156.852 109.427 152.982 111.987C149.297 114.335 142.294 113.481 142.11 111.347Z" fill="white"/>
<path d="M148.283 105.573C146.074 105.573 143.864 109.411 144.969 111.522C146.074 113.825 149.756 113.825 151.414 112.482C153.255 111.33 153.071 105.765 148.283 105.573Z" fill="black"/>
</svg>
